<svg width="122.88000000000001" height="122.88000000000001" xmlns="http://www.w3.org/2000/svg" xml:space="preserve" version="1.1">

 <g>
  <title>Layer 1</title>
  <g id="svg_1">
   <path stroke="#000" fill="none" id="svg_2" clip-rule="evenodd" fill-rule="evenodd" d="m61.44,0c33.93,0 61.44,27.51 61.44,61.44c0,33.93 -27.51,61.44 -61.44,61.44s-61.44,-27.51 -61.44,-61.44c0,-33.93 27.51,-61.44 61.44,-61.44l0,0zm-8.88,84c-1.82,0.61 -3.68,1.17 -5.5,1.77c-1.82,0.61 -3.64,1.21 -5.5,1.82c-4.34,1.4 -6.71,2.19 -7.23,2.33c-0.51,0.14 -0.19,-1.86 0.89,-6.06l3.45,-13.19l26.01,-27.04l13.85,13.33l-25.97,27.04l0,0l0,0zm25.92,-50.16c-0.65,-0.61 -1.4,-0.93 -2.24,-0.89c-0.84,0 -1.59,0.33 -2.19,0.98l-4.94,5.13l13.85,13.38l4.99,-5.22c0.61,-0.61 0.84,-1.4 0.84,-2.24c0,-0.84 -0.33,-1.63 -0.93,-2.19l-9.38,-8.95l0,0l0,0z" class="st0"/>
  </g>
 </g>
</svg>